<svg xmlns="http://www.w3.org/2000/svg" xmlns:xlink="http://www.w3.org/1999/xlink"
     viewBox="160.88 141.34 272.80 28.77" fill="currentColor">
<path fill-rule="nonzero" fill="currentColor" d="M 189.941406 142.125 L 166.949219 142.125 L 165.890625 147.285156 L 180.316406 147.285156 L 161.867188 165.390625 L 161.042969 169.496094 L 185.015625 169.496094 L 186.03125 164.335938 L 170.703125 164.335938 L 189.121094 146.230469 Z M 189.941406 142.125 "/>
<path fill-rule="nonzero" fill="currentColor" d="M 212.839844 158 C 212.382812 159.277344 211.722656 160.417969 210.863281 161.421875 C 210.003906 162.425781 208.960938 163.207031 207.734375 163.769531 C 206.507812 164.328125 205.113281 164.609375 203.550781 164.609375 C 201.960938 164.609375 200.605469 164.316406 199.484375 163.730469 C 198.363281 163.144531 197.515625 162.335938 196.941406 161.304688 C 196.367188 160.277344 196.082031 159.082031 196.082031 157.726562 C 196.082031 156.269531 196.308594 154.898438 196.765625 153.621094 C 197.222656 152.34375 197.886719 151.203125 198.761719 150.199219 C 199.632812 149.195312 200.6875 148.414062 201.929688 147.851562 C 203.164062 147.292969 204.542969 147.011719 206.054688 147.011719 C 207.644531 147.011719 209 147.304688 210.121094 147.890625 C 211.242188 148.476562 212.085938 149.289062 212.664062 150.316406 C 213.234375 151.347656 213.523438 152.539062 213.523438 153.894531 C 213.523438 155.355469 213.292969 156.722656 212.839844 158 M 213.757812 143.160156 C 211.773438 142.15625 209.390625 141.65625 206.601562 141.65625 C 204.070312 141.65625 201.769531 142.070312 199.699219 142.90625 C 197.625 143.742188 195.839844 144.894531 194.339844 146.367188 C 192.84375 147.839844 191.6875 149.582031 190.878906 151.585938 C 190.074219 153.59375 189.667969 155.757812 189.667969 158.078125 C 189.667969 160.425781 190.203125 162.492188 191.269531 164.277344 C 192.339844 166.0625 193.871094 167.457031 195.867188 168.460938 C 197.859375 169.464844 200.238281 169.96875 203.003906 169.96875 C 205.53125 169.96875 207.832031 169.550781 209.90625 168.714844 C 211.976562 167.882812 213.761719 166.726562 215.261719 165.253906 C 216.761719 163.78125 217.914062 162.042969 218.722656 160.035156 C 219.53125 158.027344 219.933594 155.863281 219.933594 153.542969 C 219.933594 151.195312 219.402344 149.128906 218.332031 147.34375 C 217.261719 145.558594 215.738281 144.164062 213.757812 143.160156 "/>
<path fill-rule="nonzero" fill="currentColor" d="M 242.730469 159.3125 L 232.527344 142.125 L 227.285156 142.125 L 221.8125 169.496094 L 228.070312 169.496094 L 231.503906 152.351562 L 241.71875 169.496094 L 246.917969 169.496094 L 252.390625 142.125 L 246.175781 142.125 Z M 242.730469 159.3125 "/>
<path fill-rule="nonzero" fill="currentColor" d="M 253.410156 169.496094 L 274.644531 169.496094 L 275.621094 164.414062 L 260.722656 164.414062 L 261.988281 158.078125 L 274.722656 158.078125 L 275.699219 153.113281 L 262.980469 153.113281 L 264.164062 147.207031 L 278.554688 147.207031 L 279.53125 142.125 L 258.882812 142.125 Z M 253.410156 169.496094 "/>
<path fill-rule="nonzero" fill="currentColor" d="M 292.082031 147.285156 L 300.804688 147.285156 L 296.382812 169.496094 L 302.757812 169.496094 L 307.175781 147.285156 L 315.898438 147.285156 L 316.953125 142.125 L 293.097656 142.125 Z M 292.082031 147.285156 "/>
<path fill-rule="nonzero" fill="currentColor" d="M 354.652344 142.125 L 344.308594 161.617188 L 341.980469 142.125 L 336.117188 142.125 L 325.804688 161.4375 L 323.40625 142.125 L 317.148438 142.125 L 320.628906 169.496094 L 327.433594 169.496094 L 337.320312 151.171875 L 339.714844 169.496094 L 346.476562 169.496094 L 360.945312 142.125 Z M 354.652344 142.125 "/>
<path fill-rule="nonzero" fill="currentColor" d="M 382.355469 158 C 381.898438 159.277344 381.242188 160.417969 380.382812 161.421875 C 379.523438 162.425781 378.476562 163.207031 377.253906 163.769531 C 376.027344 164.328125 374.632812 164.609375 373.070312 164.609375 C 371.480469 164.609375 370.125 164.316406 369 163.730469 C 367.882812 163.144531 367.035156 162.335938 366.460938 161.304688 C 365.886719 160.277344 365.601562 159.082031 365.601562 157.726562 C 365.601562 156.269531 365.828125 154.898438 366.285156 153.621094 C 366.742188 152.34375 367.40625 151.203125 368.277344 150.199219 C 369.152344 149.195312 370.207031 148.414062 371.445312 147.851562 C 372.683594 147.292969 374.058594 147.011719 375.570312 147.011719 C 377.160156 147.011719 378.519531 147.304688 379.636719 147.890625 C 380.757812 148.476562 381.605469 149.289062 382.179688 150.316406 C 382.753906 151.347656 383.039062 152.539062 383.039062 153.894531 C 383.039062 155.355469 382.8125 156.722656 382.355469 158 M 387.851562 147.34375 C 386.78125 145.558594 385.257812 144.164062 383.273438 143.160156 C 381.292969 142.15625 378.910156 141.65625 376.117188 141.65625 C 373.589844 141.65625 371.289062 142.070312 369.21875 142.90625 C 367.144531 143.742188 365.359375 144.894531 363.859375 146.367188 C 362.359375 147.839844 361.207031 149.582031 360.398438 151.585938 C 359.589844 153.59375 359.1875 155.757812 359.1875 158.078125 C 359.1875 160.425781 359.722656 162.492188 360.789062 164.277344 C 361.859375 166.0625 363.390625 167.457031 365.386719 168.460938 C 367.378906 169.464844 369.757812 169.96875 372.523438 169.96875 C 375.050781 169.96875 377.351562 169.550781 379.425781 168.714844 C 381.496094 167.882812 383.28125 166.726562 384.78125 165.253906 C 386.28125 163.78125 387.433594 162.042969 388.242188 160.035156 C 389.050781 158.027344 389.453125 155.863281 389.453125 153.542969 C 389.453125 151.195312 388.917969 149.128906 387.851562 147.34375 "/>
<path fill-rule="nonzero" fill="currentColor" d="M 419.578125 163.078125 C 421.761719 160.640625 423.585938 157.800781 425.320312 155.019531 C 426.117188 153.765625 427.324219 151.605469 427.695312 150.46875 C 427.878906 149.871094 427.5625 150.105469 427.15625 150.597656 C 423.867188 154.820312 420.398438 159.148438 415.851562 162.125 C 413.597656 163.554688 410.882812 164.875 408.15625 164.527344 C 406.339844 164.304688 405.207031 162.667969 405.785156 160.945312 C 406.261719 159.367188 407.863281 158.144531 409.339844 157.371094 C 411.390625 156.261719 413.667969 155.832031 415.914062 155.089844 C 419.535156 153.890625 423.703125 151.390625 423.78125 147.195312 C 423.824219 144.628906 422 142.332031 419.476562 141.816406 C 414.90625 140.941406 410.414062 143.582031 407.316406 146.707031 C 404.773438 149.238281 402.769531 152.25 400.871094 155.285156 C 399.960938 156.75 399.074219 158.265625 398.363281 159.828125 C 398.101562 160.414062 397.722656 161.367188 398.453125 160.554688 C 402.144531 155.882812 406.003906 150.933594 411.332031 147.996094 C 413.160156 147.023438 415.289062 146.203125 417.378906 146.398438 C 419.976562 146.621094 420.902344 149.105469 419.433594 151.140625 C 417.539062 153.722656 414.101562 154.632812 411.121094 155.480469 C 408.191406 156.308594 405.203125 157.632812 403.3125 160.058594 C 401.039062 162.863281 401.777344 167.304688 405.195312 168.78125 C 407.308594 169.730469 410.140625 169.320312 412.398438 168.421875 C 415.195312 167.316406 417.554688 165.324219 419.550781 163.109375 Z M 419.578125 163.078125 "/>
<path fill-rule="nonzero" fill="currentColor" d="M 430.207031 151.539062 C 428.78125 154.410156 427.09375 157.125 425.109375 159.632812 C 422.964844 162.371094 421.332031 165.65625 418.886719 168.132812 C 417.121094 169.898438 417.089844 170.542969 419.75 169.40625 C 427.390625 165.800781 430.230469 156.597656 432.503906 149.082031 C 432.714844 148.261719 432.917969 147.34375 433.015625 146.699219 C 433.097656 146.1875 433.109375 145.863281 433.039062 145.804688 C 432.9375 145.746094 432.832031 145.984375 432.773438 146.066406 C 432.464844 146.578125 431.9375 147.875 431.445312 148.941406 C 431.054688 149.800781 430.652344 150.652344 430.226562 151.5 Z M 430.207031 151.539062 "/>
</svg>
